# xmcd
#
# Track frame offsets: 
#        150
#        15594
#        35598
#
# Disc length: 693 seconds
#
# Revision: 0
# Processed by: cddbd v1.5.1PL2 Copyright (c) Steve Scherf et al.
# Submitted via: ExactAudioCopy v0.95a3
#
DISCID=1a02b303
DTITLE=Alabama 3 - How Can I Protect You?
DYEAR=2005
DGENRE=Blues
TTITLE0=How Can I Protect You? (feat. Aslan)
TTITLE1=Let It Slide (remix)
TTITLE2=Terra Firma (remix)
EXTD=
EXTT0=
EXTT1=
EXTT2=
PLAYORDER=
